<svg width="800" height="340" viewBox="0 0 800 340" xmlns="http://www.w3.org/2000/svg">
<rect width="800" height="340" rx="12" fill="#0d1117" stroke="#30363d" stroke-width="1.5" />

<circle cx="20" cy="22" r="5" fill="#ff5f56" />
<circle cx="38" cy="22" r="5" fill="#ffbd2e" />
<circle cx="56" cy="22" r="5" fill="#27c93f" />

<g transform="translate(25, 40) scale(0.3)" fill="#ffffff" fill-rule="evenodd">
<path d="M283.4,110.4 C305.0,124.36 314.0,144.73 315.3,169.27 C316.5,192.75 316.1,216.25 315.2,239.72 C314.6,253.33 314.5,267.04 311.4,280.44 C305.3,307.4 281.3,328.28 253.7,330.3 C207.7,333.69 161.5,333.92 115.4,332.01 C105.1,331.58 94.8,331.66 84.6,329.54 C53.0,323.01 32.2,298.05 30.4,265.82 C28.9,238.86 27.4,211.93 27.9,184.94 C28.2,170.82 28.2,156.58 33.7,143.13 C44.2,117.47 63.9,103.81 90.8,100.83 C119.4,97.67 148.3,96.89 177.1,97.14 C202.9,97.37 228.7,97.99 254.4,100.62 C264.7,101.67 274.3,104.94 283.4,110.4 M48.1,189.5 C47.9,214.48 48.8,239.42 50.3,264.35 C51.8,288.47 66.1,305.38 89.8,309.8 C104.4,312.53 119.3,312.24 134.1,312.51 C171.5,313.2 209.0,312.93 246.4,310.81 C272.6,309.32 291.8,291.64 293.5,265.7 C294.9,243.93 296.0,222.15 295.7,200.33 C295.6,187.53 296.3,174.7 294.7,161.92 C292.0,141.13 275.8,124.18 255.0,121.3 C237.5,118.88 219.8,118.88 202.2,118.08 C165.2,116.39 128.3,117.55 91.5,121.29 C70.8,123.4 55.2,137.45 50.1,157.7 C47.5,167.88 48.5,178.21 48.1,189.5 z"/>
<path d="M128.9,26.68 C164.3,21.72 199.0,22.15 233.2,31.87 C238.9,33.47 244.2,35.77 249.2,38.88 C258.9,44.93 259.0,53.14 249.6,59.33 C239.4,65.94 227.9,68.8 216.3,70.93 C179.3,77.72 142.4,76.95 105.9,67.21 C98.8,65.31 91.9,62.7 86.1,58.08 C78.8,52.37 78.9,45.84 86.6,40.56 C97.4,33.07 110.0,30.49 122.5,27.72 C124.5,27.29 126.5,27.04 128.9,26.68 M205.9,42.64 C172.3,38.83 139.0,39.09 106.4,49.4 C148.3,61.04 190.2,61.42 232.1,49.46 C224.1,45.14 215.4,44.23 205.9,42.64 z"/>
<path d="M254.1,197.45 C250.0,218.43 227.1,226.53 211.4,215.52 C200.9,208.18 196.8,194.14 201.9,181.77 C206.7,169.97 219.7,163.04 232.3,165.56 C245.4,168.17 254.2,178.82 254.3,192.04 C254.3,193.7 254.2,195.36 254.1,197.45 z"/>
<path d="M143.9,189.47 C144.9,204.85 135.9,217.13 121.9,220.05 C108.8,222.8 95.3,214.92 90.8,201.81 C85.4,186.49 94.2,170.08 110.1,165.8 C125.8,161.56 140.6,171.82 143.9,189.47 z"/>
<path d="M178.3,253.21 C191.3,252.04 202.8,248.12 213.4,241.41 C218.9,237.98 224.9,239.32 227.9,244.12 C230.9,248.74 229.6,254.35 224.2,257.97 C205.6,270.39 184.9,274.67 162.8,272.88 C148.6,271.72 135.0,268.15 122.7,260.48 C121.1,259.51 119.6,258.47 118.3,257.24 C114.0,253.27 113.2,247.48 116.4,243.33 C119.5,239.31 125.0,238.21 129.9,241.36 C138.2,246.79 147.2,250.51 157.0,252.12 C163.9,253.26 170.9,254.27 178.3,253.21 z"/>
</g>

<g font-family="SFMono-Regular, Consolas, 'Liberation Mono', Menlo, Monaco, monospace" font-size="16">
<line x1="0" y1="150" x2="800" y2="150" stroke="#30363d" stroke-width="1" />
<text x="10" y="173" fill="#39d353">â¯ <tspan fill="#ffffff">Let's do something dangerous!</tspan></text>
<line x1="0" y1="185" x2="800" y2="185" stroke="#30363d" stroke-width="1" />
<text x="30" y="207" fill="#c23720">__ bypass permissions on</text>
<rect x="310" y="158" width="8" height="18" fill="#58a6ff">
<animate attributeName="opacity" values="1;0;1" dur="1s" repeatCount="indefinite" />
</rect>
</g>
</svg>
